<?xml version="1.0" standalone="no"?>
<!DOCTYPE svg PUBLIC "-//W3C//DTD SVG 1.1//EN" "http://www.w3.org/Graphics/SVG/1.1/DTD/svg11.dtd" >
<!--
2013-9-30: Created.
-->
<svg>
<metadata>
Created by iconfont
</metadata>
<defs>

<font id="iconfont" horiz-adv-x="1024" >
  <font-face
    font-family="iconfont"
    font-weight="500"
    font-stretch="normal"
    units-per-em="1024"
    ascent="896"
    descent="-128"
  />
    <missing-glyph />
    
    <glyph glyph-name="auto" unicode="&#58959;" d="M512 833.57142862C264.11428584 833.57142862 62.42857138 631.88571416 62.42857138 384S264.11428584-65.57142862 512-65.57142862s449.57142862 201.68571445 449.57142862 449.57142862S759.88571416 833.57142862 512 833.57142862z m0-841.75714248c-216.25714248 0-392.22857109 175.92857138-392.22857109 392.18571386 0 216.25714248 175.97142862 392.18571387 392.22857109 392.18571387 216.25714248 0 392.22857109-175.92857138 392.22857109-392.18571387 0-216.25714248-175.97142862-392.18571387-392.22857109-392.18571386zM546.71428584 602.14285693a28.71428555 28.71428555 0 0 1-26.91428555 20.05714336c-12.68571445-0.42857138-23.4-7.54285693-27.51428584-19.20000058l-147.00000058-419.01428585a28.71428555 28.71428555 0 1 1 54.08571445-18.98571357l39.55714277 112.71428526h150.04285753l35.35714247-111.85714248a28.67142832 28.67142832 0 1 1 54.68571475 17.27142802L546.71428584 602.14285693z m-87.64285693-266.99999941l58.84285693 167.65714248 52.97142832-167.69999971H459.07142891z"  horiz-adv-x="1024" />

    
    <glyph glyph-name="arrow" unicode="&#58923;" d="M256.623 460.613h510.753l-255.379 306.45-255.376-306.45h0.002zM767.376 307.38800000000003H256.625L512 0.9370000000000118l255.379 306.451h-0.003z"  horiz-adv-x="1024" />

    
    <glyph glyph-name="link2" unicode="&#58927;" d="M469.333 200.53300000000002l-49.066-49.066c-19.2-19.2-42.667-29.867-70.4-29.867-25.6 0-51.2 10.667-70.4 29.867-38.4 38.4-38.4 102.4 0 140.8L396.8 409.6c19.2 19.2 42.667 29.867 70.4 29.867 25.6 0 51.2-10.667 70.4-29.867 14.933-14.933 40.533-14.933 57.6 0 14.933 14.933 14.933 40.533 0 57.6a178.987 178.987 0 0 1-253.867 0L224 349.86699999999996A178.987 178.987 0 0 1 224 96c70.4-70.4 183.467-70.4 253.867 0l49.066 49.067c14.934 14.933 14.934 40.533 0 57.6-17.066 12.8-42.666 12.8-57.6-2.134zM800 672a178.987 178.987 0 0 1-253.867 0l-49.066-49.067c-14.934-14.933-14.934-40.533 0-57.6 14.933-14.933 40.533-14.933 57.6 0l49.066 49.067c19.2 19.2 42.667 29.867 70.4 29.867 25.6 0 51.2-10.667 70.4-29.867 38.4-38.4 38.4-102.4 0-140.8L627.2 356.26700000000005c-19.2-19.2-42.667-29.867-70.4-29.867-25.6 0-51.2 10.667-70.4 29.867-14.933 14.933-40.533 14.933-57.6 0-14.933-14.934-14.933-38.4-2.133-53.334l2.133-2.133c70.4-70.4 183.467-70.4 253.867 0L800 418.133c70.4 70.4 70.4 185.6 0 253.867z"  horiz-adv-x="1024" />

    
    <glyph glyph-name="series-column" unicode="&#58926;" d="M170.666667 85.33333300000004l682.666666 0 0-42.666666-682.666666 0 0 42.666666ZM256 460.8v-290.133333h85.333333v290.133333H256z m0 42.666667h85.333333c23.5648 0 42.666667-19.101867 42.666667-42.666667v-290.133333c0-23.5648-19.101867-42.666667-42.666667-42.666667H256c-23.5648 0-42.666667 19.101867-42.666667 42.666667v290.133333c0 23.5648 19.101867 42.666667 42.666667 42.666667zM469.333333 725.333333v-554.666666h85.333334V725.333333h-85.333334z m0 42.666667h85.333334c23.5648 0 42.666667-19.101867 42.666666-42.666667v-554.666666c0-23.5648-19.101867-42.666667-42.666666-42.666667h-85.333334c-23.5648 0-42.666667 19.101867-42.666666 42.666667V725.333333c0 23.5648 19.101867 42.666667 42.666666 42.666667zM682.666667 554.666667v-384h85.333333V554.666667h-85.333333z m0 42.666666h85.333333c23.5648 0 42.666667-19.101867 42.666667-42.666666v-384c0-23.5648-19.101867-42.666667-42.666667-42.666667h-85.333333c-23.5648 0-42.666667 19.101867-42.666667 42.666667V554.666667c0 23.5648 19.101867 42.666667 42.666667 42.666666z"  horiz-adv-x="1024" />

    
    <glyph glyph-name="search" unicode="&#58916;" d="M446.638298 106.21276599999999c-190.638298 0-348.595745 157.957447-348.595745 348.595745s157.957447 348.595745 348.595745 348.595744c190.638298 0 348.595745-157.957447 348.595745-348.595744s-152.510638-348.595745-348.595745-348.595745z m0 593.702128c-130.723404 0-239.659574-108.93617-239.659575-239.659575s108.93617-239.659574 239.659575-239.659574c130.723404 0 239.659574 108.93617 239.659574 239.659574s-103.489362 239.659574-239.659574 239.659575zM871.489362-40.85106399999995c-16.340426 0-27.234043 5.446809-38.12766 16.340426L620.93617 187.914894c-21.787234 21.787234-21.787234 54.468085 0 76.255319s54.468085 21.787234 76.255319 0l206.978724-206.978724c21.787234-21.787234 21.787234-54.468085 0-76.255319-5.446809-16.340426-21.787234-21.787234-32.680851-21.787234z"  horiz-adv-x="1024" />

    
    <glyph glyph-name="plus" unicode="&#60422;" d="M849.5-9.75H174.5c-31.021875 0-56.25 25.228125-56.25 56.25V721.5c0 31.021875 25.228125 56.25 56.25 56.25h675c31.021875 0 56.25-25.228125 56.25-56.25v-675c0-31.021875-25.228125-56.25-56.25-56.25zM174.5 721.5v-675h675.05625L849.5 721.5H174.5zM540.125 412.125h182.8125a28.125 28.125 0 0 0 0-56.25H540.125v-182.8125a28.125 28.125 0 0 0-56.25 0V355.875H301.0625a28.125 28.125 0 0 0 0 56.25H483.875V594.9375a28.125 28.125 0 0 0 56.25 0V412.125z"  horiz-adv-x="1024" />

    
    <glyph glyph-name="check-circle" unicode="&#59261;" d="M699 543h-46.9c-10.2 0-19.9-4.9-25.9-13.3L469 311.70000000000005l-71.2 98.8c-6 8.3-15.6 13.3-25.9 13.3H325c-6.5 0-10.3-7.4-6.5-12.7l124.6-172.8c12.7-17.7 39-17.7 51.7 0l210.6 292c3.9 5.3 0.1 12.7-6.4 12.7zM512 832C264.6 832 64 631.4 64 384s200.6-448 448-448 448 200.6 448 448S759.4 832 512 832z m0-820c-205.4 0-372 166.6-372 372s166.6 372 372 372 372-166.6 372-372-166.6-372-372-372z"  horiz-adv-x="1024" />

    
    <glyph glyph-name="excel" unicode="&#59319;" d="M854.6 607.4L639.4 822.6c-6 6-14.1 9.4-22.6 9.4H192c-17.7 0-32-14.3-32-32v-832c0-17.7 14.3-32 32-32h640c17.7 0 32 14.3 32 32V584.7c0 8.5-3.4 16.7-9.4 22.7zM790.2 570H602V758.2L790.2 570z m1.8-562H232V760h302v-216c0-23.2 18.8-42 42-42h216v-494zM514.1 315.9l-61.8 102.4c-2.2 3.6-6.1 5.8-10.3 5.8h-38.4c-2.3 0-4.5-0.6-6.4-1.9-5.6-3.5-7.3-10.9-3.7-16.6l82.3-130.4-83.4-132.8c-1.2-1.9-1.8-4.1-1.8-6.4 0-6.6 5.4-12 12-12h34.5c4.2 0 8 2.2 10.2 5.7L510 231.20000000000005l62.3-101.4c2.2-3.6 6.1-5.7 10.2-5.7H620c2.3 0 4.5 0.7 6.5 1.9 5.6 3.6 7.2 11 3.6 16.6l-84 130.4 85.3 132.5c1.2 1.9 1.9 4.2 1.9 6.5 0 6.6-5.4 12-12 12h-35.7c-4.2 0-8.1-2.2-10.3-5.8l-61.2-102.3z"  horiz-adv-x="1024" />

    
    <glyph glyph-name="copy" unicode="&#59324;" d="M832 832H296c-4.4 0-8-3.6-8-8v-56c0-4.4 3.6-8 8-8h496v-688c0-4.4 3.6-8 8-8h56c4.4 0 8 3.6 8 8V800c0 17.7-14.3 32-32 32zM704 704H192c-17.7 0-32-14.3-32-32v-530.7c0-8.5 3.4-16.6 9.4-22.6l173.3-173.3c2.2-2.2 4.7-4 7.4-5.5v-1.9h4.2c3.5-1.3 7.2-2 11-2H704c17.7 0 32 14.3 32 32V672c0 17.7-14.3 32-32 32zM350 39.799999999999955L263.9 126H350v-86.2zM664 8H414V150c0 22.1-17.9 40-40 40H232V632h432v-624z"  horiz-adv-x="1024" />

    
    <glyph glyph-name="edit" unicode="&#59361;" d="M257.7 144c2 0 4 0.2 6 0.5L431.9 174c2 0.4 3.9 1.3 5.3 2.8l423.9 423.9c3.9 3.9 3.9 10.2 0 14.1L694.9 781.1c-1.9 1.9-4.4 2.9-7.1 2.9s-5.2-1-7.1-2.9L256.8 357.2c-1.5-1.5-2.4-3.3-2.8-5.3l-29.5-168.2c-1.9-11.1 1.5-21.9 9.4-29.8 6.6-6.4 14.9-9.9 23.8-9.9z m67.4 174.4L687.8 681l73.3-73.3-362.7-362.6-88.9-15.7 15.6 89zM880 60H144c-17.7 0-32-14.3-32-32v-36c0-4.4 3.6-8 8-8h784c4.4 0 8 3.6 8 8v36c0 17.7-14.3 32-32 32z"  horiz-adv-x="1024" />

    
    <glyph glyph-name="link" unicode="&#59362;" d="M574 230.60000000000002c-3.1 3.1-8.2 3.1-11.3 0L446.5 114.39999999999998c-53.8-53.8-144.6-59.5-204 0-59.5 59.5-53.8 150.2 0 204l116.2 116.2c3.1 3.1 3.1 8.2 0 11.3l-39.8 39.8c-3.1 3.1-8.2 3.1-11.3 0L191.4 369.5c-84.6-84.6-84.6-221.5 0-306s221.5-84.6 306 0l116.2 116.2c3.1 3.1 3.1 8.2 0 11.3L574 230.60000000000002zM832.6 704.6c-84.6 84.6-221.5 84.6-306 0L410.3 588.4c-3.1-3.1-3.1-8.2 0-11.3l39.7-39.7c3.1-3.1 8.2-3.1 11.3 0l116.2 116.2c53.8 53.8 144.6 59.5 204 0 59.5-59.5 53.8-150.2 0-204L665.3 333.4c-3.1-3.1-3.1-8.2 0-11.3l39.8-39.8c3.1-3.1 8.2-3.1 11.3 0l116.2 116.2c84.5 84.6 84.5 221.5 0 306.1zM610.1 523.7c-3.1 3.1-8.2 3.1-11.3 0L372.3 297.29999999999995c-3.1-3.1-3.1-8.2 0-11.3l39.6-39.6c3.1-3.1 8.2-3.1 11.3 0l226.4 226.4c3.1 3.1 3.1 8.2 0 11.3l-39.5 39.6z"  horiz-adv-x="1024" />

    
    <glyph glyph-name="indent" unicode="&#59379;" d="M408 454h480c4.4 0 8 3.6 8 8v56c0 4.4-3.6 8-8 8H408c-4.4 0-8-3.6-8-8v-56c0-4.4 3.6-8 8-8zM400 250c0-4.4 3.6-8 8-8h480c4.4 0 8 3.6 8 8v56c0 4.4-3.6 8-8 8H408c-4.4 0-8-3.6-8-8v-56zM904 736H120c-4.4 0-8-3.6-8-8v-56c0-4.4 3.6-8 8-8h784c4.4 0 8 3.6 8 8v56c0 4.4-3.6 8-8 8zM904 104H120c-4.4 0-8-3.6-8-8v-56c0-4.4 3.6-8 8-8h784c4.4 0 8 3.6 8 8v56c0 4.4-3.6 8-8 8zM142.4 253.89999999999998L298.7 377c4.5 3.5 4.5 10.3 0 13.9L142.4 514.1c-5.8 4.6-14.4 0.5-14.4-6.9v-246.3c0-7.4 8.5-11.6 14.4-7z"  horiz-adv-x="1024" />

    
    <glyph glyph-name="outdent" unicode="&#59380;" d="M408 454h480c4.4 0 8 3.6 8 8v56c0 4.4-3.6 8-8 8H408c-4.4 0-8-3.6-8-8v-56c0-4.4 3.6-8 8-8zM400 250c0-4.4 3.6-8 8-8h480c4.4 0 8 3.6 8 8v56c0 4.4-3.6 8-8 8H408c-4.4 0-8-3.6-8-8v-56zM904 736H120c-4.4 0-8-3.6-8-8v-56c0-4.4 3.6-8 8-8h784c4.4 0 8 3.6 8 8v56c0 4.4-3.6 8-8 8zM904 104H120c-4.4 0-8-3.6-8-8v-56c0-4.4 3.6-8 8-8h784c4.4 0 8 3.6 8 8v56c0 4.4-3.6 8-8 8zM115.4 377.1L271.7 254c5.8-4.6 14.4-0.5 14.4 6.9V507.1c0 7.4-8.5 11.5-14.4 6.9L115.4 390.9c-4.5-3.5-4.5-10.3 0-13.8z"  horiz-adv-x="1024" />

    
    <glyph glyph-name="number" unicode="&#59385;" d="M849.5 494.625c4.125 0 7.5 3.375 7.5 7.5v56.25c0 4.125-3.375 7.5-7.5 7.5H695.75V721.5c0 4.125-3.375 7.5-7.5 7.5h-60c-4.125 0-7.5-3.375-7.5-7.5v-155.625H407V721.5c0 4.125-3.375 7.5-7.5 7.5h-60c-4.125 0-7.5-3.375-7.5-7.5v-155.625H174.5c-4.125 0-7.5-3.375-7.5-7.5v-56.25c0-4.125 3.375-7.5 7.5-7.5h157.5v-221.25H174.5c-4.125 0-7.5-3.375-7.5-7.5v-56.25c0-4.125 3.375-7.5 7.5-7.5h157.5v-155.625c0-4.125 3.375-7.5 7.5-7.5h60c4.125 0 7.5 3.375 7.5 7.5V202.125h213.75v-155.625c0-4.125 3.375-7.5 7.5-7.5h60c4.125 0 7.5 3.375 7.5 7.5V202.125h153.75c4.125 0 7.5 3.375 7.5 7.5v56.25c0 4.125-3.375 7.5-7.5 7.5H695.75V494.625h153.75zM620.75 273.375H407V494.625h213.75v-221.25z"  horiz-adv-x="1024" />

    
    <glyph glyph-name="check-circle-fill" unicode="&#59460;" d="M512 832C264.6 832 64 631.4 64 384s200.6-448 448-448 448 200.6 448 448S759.4 832 512 832z m193.5-301.7l-210.6-292c-12.7-17.7-39-17.7-51.7 0L318.5 411.1c-3.8 5.3 0 12.7 6.5 12.7h46.9c10.2 0 19.9-4.9 25.9-13.3l71.2-98.8 157.2 218c6 8.3 15.6 13.3 25.9 13.3H699c6.5 0 10.3-7.4 6.5-12.7z"  horiz-adv-x="1024" />

    
    <glyph glyph-name="camera-fill" unicode="&#59503;" d="M864 636H728l-32.4 90.8C691 739.5 679 748 665.4 748H358.6c-13.5 0-25.6-8.5-30.1-21.2L296 636H160c-44.2 0-80-35.8-80-80v-456c0-44.2 35.8-80 80-80h704c44.2 0 80 35.8 80 80V556c0 44.2-35.8 80-80 80zM512 180c-88.4 0-160 71.6-160 160s71.6 160 160 160 160-71.6 160-160-71.6-160-160-160zM512 340m-96 0a96 96 0 1 1 192 0 96 96 0 1 1-192 0Z"  horiz-adv-x="1024" />

    
    <glyph glyph-name="removal" unicode="&#59404;" d="M590.50666667 15.360000000000014h-204.8V419.49866667h404.82133333v-204.8a34.13333333 34.13333333 0 1 1 68.26666667 0V452.26666667a34.13333333 34.13333333 0 0 1-34.13333334 34.13333333h-204.8v204.8a34.13333333 34.13333333 0 0 1-34.13333333 34.13333333H117.41866667a34.13333333 34.13333333 0 0 1-34.13333334-34.13333333v-473.088a34.13333333 34.13333333 0 0 1 34.13333334-34.13333333h204.8v-204.8a34.13333333 34.13333333 0 0 1 34.13333333-34.13333334h234.15466667a34.13333333 34.13333333 0 1 1 0 68.26666667zM151.552 657.06666667h404.82133333v-169.30133334h-204.8a34.13333333 34.13333333 0 0 1-34.13333333-34.13333333v-204.8H151.552zM901.12-37.888000000000034l-136.53333333 141.312a8.192 8.192 0 0 1-14.336-5.46133333v-136.53333334a10.24 10.24 0 0 1 10.24-10.24h136.53333333a8.192 8.192 0 0 1 4.096 10.92266667z"  horiz-adv-x="1024" />

    
    <glyph glyph-name="table" unicode="&#59085;" d="M230.75 665.25a56.25 56.25 0 0 1-56.25-56.25v-450a56.25 56.25 0 0 1 56.25-56.25h562.5a56.25 56.25 0 0 1 56.25 56.25V609a56.25 56.25 0 0 1-56.25 56.25H230.75z m0 56.25h562.5a112.5 112.5 0 0 0 112.5-112.5v-450a112.5 112.5 0 0 0-112.5-112.5H230.75a112.5 112.5 0 0 0-112.5 112.5V609a112.5 112.5 0 0 0 112.5 112.5zM230.75 721.5h562.5a112.5 112.5 0 0 0 112.5-112.5v-56.25H118.25V609a112.5 112.5 0 0 0 112.5 112.5zM343.25 609h56.25v-562.5H343.25zM849.5 440.25v-56.25H174.5V440.25zM849.5 271.5v-56.25H174.5v56.25zM624.5 609h56.25v-562.5h-56.25z"  horiz-adv-x="1024" />

    
    <glyph glyph-name="pie" unicode="&#58882;" d="M446.17728436 715.7497803v-397.65487692h397.65487692c-21.99582586-175.30755743-172.01230252-311.40158148-353.16893599-311.40158148C294.43079968 6.693321900000001 134.6933219 166.34841787000005 134.6933219 362.66322529c0 181.15663431 136.09402488 331.17311096 311.48396246 353.08655501m44.48594092 47.28690665C269.46924447 763.03668696 90.20738098 583.77482427 90.20738098 362.58084348c0-221.111599 179.26186268-400.45584348 400.45584431-400.45584348 221.111599 0 400.45584348 179.26186268 400.45584347 400.45584348H490.66322529V763.03668696zM577.90509662 758.50571154C738.63115112 738.4046573200001 866.40465732 610.63115112 886.50571154 449.82271564H577.90509662V758.50571154M533.33677471 805.79261902v-400.45584431h400.45584431C933.79261902 626.5307555300001 754.53075553 805.79261902 533.33677471 805.79261902z"  horiz-adv-x="1024" />

    
    <glyph glyph-name="sort" unicode="&#58898;" d="M128 259.99999969c19.99999969 12 48 12 64.00000031-7.99999969l120-124.00000031V748.00000031c4.00000031 19.99999969 28.00000031 36 51.99999938 36 28.00000031 0 48-16.00000031 48-36V24c0-16.00000031-12-31.99999969-31.99999969-36-4.00000031-4.00000031-12-4.00000031-16.00000031-4.00000031-16.00000031 0-28.00000031 4.00000031-36 16.00000031l-204 208.00000031c-16.00000031 16.00000031-16.00000031 40.00000031 4.00000031 51.99999938zM644 780c19.99999969 4.00000031 40.00000031 0 52.00000031-12l204-208.00000031c16.00000031-16.00000031 12-40.00000031-8.00000062-51.99999938-19.99999969-12-48-12-63.99999938 7.99999969l-120 124.00000031V24c0-19.99999969-19.99999969-36-48-36-24 0-48 16.00000031-48 36V748.00000031c0 16.00000031 12 28.00000031 31.99999969 31.99999969z"  horiz-adv-x="1024" />

    
    <glyph glyph-name="project" unicode="&#58924;" d="M111.50351562 503.53125027l379.68750001-225.00000027c7.03124973-7.03124973 14.06250027-7.03124973 21.09374999-7.03124973 7.03124973 0 14.06250027 0 21.09375 7.03124973l379.68750001 225.00000027c14.06250027 7.03124973 21.09375 21.09375 21.09374999 35.15624946s-7.03124973 28.12499973-21.09375 35.15625027L533.37851563 798.84375027c-14.06250027 7.03124973-28.12499973 7.03124973-42.1875 0L111.50351562 573.84375c-14.06250027-7.03124973-21.09375-21.09375-21.09374999-35.15625027s7.03124973-28.12499973 21.09375-35.15624946M877.90976535 419.15625027L512.28476563 201.18749973 146.6597659 419.15625027c-14.06250027 7.03124973-42.1875 0-49.21875055-14.06250027-14.06250027-21.09375-7.03124973-49.21874973 14.06250027-56.25000027l379.68750001-224.99999946c7.03124973-7.03124973 14.06250027-7.03124973 21.09374999-7.03125054 7.03124973 0 14.06250027 0 21.09375 7.03125054l379.68750001 224.99999946c21.09375 7.03124973 28.12499973 35.15625027 14.06250027 56.25000027-7.03124973 14.06250027-35.15625027 21.09375-49.21875055 14.06250027M877.90976535 264.46874973L512.28476563 46.5 146.6597659 264.46874973c-14.06250027 7.03124973-42.1875 0-49.21875055-14.06249946-14.06250027-21.09375-7.03124973-49.21874973 14.06250027-56.25000027l379.68750001-225.00000027c7.03124973-7.03124973 14.06250027-7.03124973 21.09374999-7.03124973 7.03124973 0 14.06250027 0 21.09375 7.03124973l379.68750001 225.00000027c21.09375 14.06250027 28.12499973 35.15625027 14.06250027 56.25000027-7.03124973 14.06250027-35.15625027 21.09375-49.21875055 14.06249946"  horiz-adv-x="1024" />

    
    <glyph glyph-name="filter" unicode="&#58925;" d="M580.5-47.299999999999955c-17 0-30.7 13.8-30.7 30.7V340.70000000000005c0 22.7 8.3 44.4 23.3 61.3l275.1 309.2c5 5.7 7.8 12.9 7.8 20.4 0 17-13.8 30.8-30.8 30.8H112.3c-6.8 0-13.4-2.3-18.7-6.4-6.6-5-10.8-12.3-11.8-20.4-1.1-8.1 1.1-16.2 6.1-22.7l240.7-313.6c12.3-15.9 19.1-35.9 19.1-56.1v-204c0-17-13.8-30.7-30.7-30.7s-30.7 13.8-30.7 30.7v204c0 6.8-2.3 13.4-6.4 18.7L39.2 675.5c-15 19.5-21.5 43.7-18.3 68.2 3.3 24.5 15.8 46.2 35.3 61.2 15.9 12.3 35.9 19 56.1 19h712.9c50.8 0 92.2-41.4 92.2-92.2 0-22.6-8.3-44.3-23.3-61.2L619 361.1c-5-5.6-7.8-12.9-7.8-20.5v-357.3c0-16.9-13.7-30.6-30.7-30.6zM972.2 252.60000000000002H712.3c-17 0-30.7 13.8-30.7 30.7s13.8 30.7 30.7 30.7h259.9c17 0 30.7-13.8 30.7-30.7s-13.8-30.7-30.7-30.7zM972.2 105.20000000000005H712.3c-17 0-30.7 13.8-30.7 30.7s13.8 30.7 30.7 30.7h259.9c17 0 30.7-13.8 30.7-30.7s-13.8-30.7-30.7-30.7zM972.2-42.200000000000045H712.3c-17 0-30.7 13.8-30.7 30.7s13.8 30.7 30.7 30.7h259.9c17 0 30.7-13.8 30.7-30.7s-13.8-30.7-30.7-30.7z"  horiz-adv-x="1024" />

    
    <glyph glyph-name="close" unicode="&#58903;" d="M813.698893 746.038672m30.16989-30.169889l0 0q30.169889-30.169889 0-60.339779l-603.397787-603.397787q-30.169889-30.169889-60.339779 0l0 0q-30.169889 30.169889 0 60.339779l603.397787 603.397787q30.169889 30.169889 60.339779 0ZM210.284129 746.031639m-30.16989-30.169889l0 0q-30.169889-30.169889 0-60.339779l603.397787-603.397786q30.169889-30.169889 60.339779 0l0 0q30.169889 30.169889 0 60.339778l-603.397787 603.397787q-30.169889 30.169889-60.339779 0Z"  horiz-adv-x="1024" />

    
    <glyph glyph-name="round-fill" unicode="&#58887;" d="M512 384m-448 0a448 448 0 1 1 896 0 448 448 0 1 1-896 0Z"  horiz-adv-x="1024" />

    
    <glyph glyph-name="series-line" unicode="&#58880;" d="M105.875 778.59375h66.375v-796.3125H105.875V778.59375zM108.03125-17.71875v66.375h796.3125v-66.375H108.03125zM601.34375 336.1875L464.1875 473.34375 265.15625 353.90625l-30.9375 53.0625 243.28125 145.96875 128.34375-128.34375 199.125 159.28125 39.84375-53.0625L601.34375 336.1875z"  horiz-adv-x="1024" />

    
    <glyph glyph-name="data-analysis" unicode="&#58905;" d="M800.94094222 691.58229333c55.34151111 0 102.52743111-41.36049778 106.60522667-94.95438222 4.66033778-54.75896889-34.36999111-101.94488889-90.29404444-111.26556444-12.81592889-2.33016889-25.63185778-1.74762667-37.86524445 1.16508444-5.24288 1.16508445-6.99050667-0.58254222-8.73813333-4.07779556-39.03032889-66.40981333-78.6432-132.23708445-118.25607112-198.64689777-4.07779555-6.99050667 1.16508445-8.15559111 4.07779556-10.48576 27.37948445-20.97152 39.61287111-48.35100445 35.53507556-82.13845333-4.66033778-34.95253333-25.04931555-59.41930667-58.83676445-72.23523556-36.11761778-13.39847111-76.31303111-2.33016889-101.36234667 26.79694222-25.04931555 28.54456889-27.96202667 69.90506667-8.1555911 101.94488889 3.49525333 5.82542222 3.49525333 8.15559111-2.3301689 12.23338667l-166.02453333 120.58624c-4.66033778 3.49525333-8.15559111 4.07779555-13.39847111 1.74762666-12.23338667-5.82542222-26.2144-8.15559111-40.19541333-6.40796444-5.82542222 1.16508445-8.15559111-1.16508445-11.06830223-5.24288-16.31118222-27.96202667-33.20490667-55.92405333-50.0986311-83.88608-2.91271111-5.24288-3.49525333-8.15559111 1.16508444-13.39847111 18.64135111-23.30168889 20.97152-48.93354667 6.99050666-75.14794667-13.39847111-24.46677333-40.77795555-38.44778667-68.73998222-34.95253333-29.70965333 4.07779555-50.09863111 19.80643555-59.41930666 47.76846222-16.31118222 48.35100445 27.37948445 96.70200889 79.22574222 87.38133333 5.82542222-1.16508445 8.15559111 0.58254222 11.06830222 5.24288 15.72864 26.79694222 31.45728 53.59388445 47.76846222 79.80828445 3.49525333 5.82542222 3.49525333 8.73813333-1.74762666 13.39847111-25.04931555 21.55406222-33.20490667 57.67168-19.22389334 87.96387556 13.98101333 30.87473778 46.02083555 48.93354667 79.22574222 46.60337777 32.62236445-2.33016889 61.16693333-24.46677333 69.90506667-56.50659555 6.40796445-20.38897778 3.49525333-41.94304-7.57304889-60.00184889-2.91271111-5.24288-2.33016889-6.99050667 2.33016889-10.48576 55.92405333-40.19541333 111.84810667-80.97336889 167.77216-121.75132445 3.49525333-2.33016889 6.40796445-3.49525333 11.06830223-1.16508444 15.14609778 8.15559111 32.62236445 11.65084445 50.0986311 9.90321778 6.40796445-0.58254222 8.73813333 1.74762667 11.65084445 6.40796444 39.03032889 65.24472889 77.47811555 130.48945778 116.50844445 196.31672889 3.49525333 5.82542222 3.49525333 8.73813333-2.3301689 13.39847111-35.53507555 26.79694222-49.51608889 73.40032-34.3699911 115.34336 14.56355555 41.36049778 54.75896889 68.73998222 99.03217777 68.73998222z"  horiz-adv-x="1025" />

    
    <glyph glyph-name="table-grid" unicode="&#58906;" d="M828.40625 753.140625c29.109375 0 52.734375-23.625 52.734375-52.734375v-632.8125c0-29.109375-23.625-52.734375-52.734375-52.734375H195.59375c-29.109375 0-52.734375 23.625-52.734375 52.734375V700.40625c0 29.109375 23.625 52.734375 52.734375 52.734375h632.8125M828.40625 805.875H195.59375C137.375 805.875 90.125 758.625 90.125 700.40625v-632.8125c0-58.21875 47.25-105.46875 105.46875-105.46875h632.8125c58.21875 0 105.46875 47.25 105.46875 105.46875V700.40625c0 58.21875-47.25 105.46875-105.46875 105.46875zM933.875 542.203125H90.125V489.46875h843.75V542.203125z m0-263.671875H90.125v-52.734375h843.75V278.53125zM353.796875 753.140625H406.53125V-37.875H353.796875zM617.46875 753.140625h52.734375V-37.875H617.46875z"  horiz-adv-x="1024" />

    
    <glyph glyph-name="table-sheet" unicode="&#58907;" d="M828.03729395 753.16697901c29.09482773 0 52.70802099-23.61319327 52.70802099-52.708021v-632.49625195c0-29.09482773-23.61319327-52.70802099-52.708021-52.708021H195.54104199c-29.09482773 0-52.70802099 23.61319327-52.708021 52.708021V700.4589580100001c0 29.09482773 23.61319327 52.70802099 52.70802101 52.708021h632.49625195M828.03729395 805.875H195.54104199C137.35138653 805.875 90.125 758.64861347 90.125 700.4589580100001v-632.49625195c0-58.18965546 47.22638654-105.41604199 105.41604199-105.416042h632.49625195c58.18965546 0 105.41604199 47.22638654 105.416042 105.416042V700.4589580100001c0 58.18965546-47.22638654 105.41604199-105.416042 105.41604199zM90.125 542.33489502h790.62031494V489.62687403H90.125zM353.66510498 515.77005249H406.37312597v-553.64505249H353.66510498z"  horiz-adv-x="1024" />

    
    <glyph glyph-name="table-row" unicode="&#58910;" d="M856.064 783.872h-79.872c-4.608 0-8.192-3.584-8.192-8.192v-783.872c0-4.608 3.584-8.192 8.192-8.192h79.872c4.608 0 8.192 3.584 8.192 8.192V776.192c0 4.096-4.096 7.68-8.192 7.68z m-200.192 0H192c-17.92 0-32.256-14.848-32.256-33.28v-733.184c0-18.432 14.336-33.28 32.256-33.28h463.872c17.92 0 32.256 14.848 32.256 33.28V750.592c0 18.432-14.336 33.28-32.256 33.28zM392.192 55.80799999999999H231.936v176.128h160.256v-176.128z m0 240.128H231.936V472.064h160.256v-176.128z m0 240.128H231.936V712.192h160.256v-176.128z m223.744-480.256H456.192v176.128h160.256v-176.128z m0 240.128H456.192V472.064h160.256v-176.128z m0 240.128H456.192V712.192h160.256v-176.128z"  horiz-adv-x="1024" />

    
    <glyph glyph-name="data" unicode="&#58911;" d="M207.872 432.128v-224.256h64V432.128H207.872z m0 64h64c35.328 0 64-28.672 64-64v-224.256c0-35.328-28.672-64-64-64H207.872c-35.328 0-64 28.672-64 64V432.128c0 35.328 28.672 64 64 64z m528.384 207.872h64c35.328 0 64-28.672 64-64v-432.128c0-35.328-28.672-64-64-64h-64c-35.328 0-64 28.672-64 64V640c0 35.328 28.672 64 64 64z m0-64v-432.128h64V640h-64zM480.256 543.744v-335.872h64V543.744H480.256z m0 64h64c35.328 0 64-28.672 64-64v-335.872c0-35.328-28.672-64-64-64H480.256c-35.328 0-64 28.672-64 64V543.744c0 35.328 28.672 64 64 64z"  horiz-adv-x="1024" />

    
    <glyph glyph-name="data-fill" unicode="&#58912;" d="M235.008 471.552h78.848c22.016 0 36.352-14.848 36.352-36.352v-343.552c0-22.016-14.848-36.352-36.352-36.352H235.008c-22.016 0-36.352 14.848-36.352 36.352V435.2c-0.512 22.016 14.336 36.352 36.352 36.352zM472.576 749.568h78.848c22.016 0 36.352-14.848 36.352-36.352v-621.568c0-22.016-14.848-36.352-36.352-36.352H472.576c-22.016 0-36.352 14.848-36.352 36.352V713.216c-0.512 22.016 14.336 36.352 36.352 36.352zM710.144 610.816h78.848c22.016 0 36.352-14.848 36.352-36.352v-482.816c0-22.016-14.848-36.352-36.352-36.352h-78.848c-22.016 0-36.352 14.848-36.352 36.352V573.952c0 22.016 14.336 36.864 36.352 36.864z"  horiz-adv-x="1024" />

    
    <glyph glyph-name="usergroup" unicode="&#58914;" d="M824.32 196.096c-25.6 25.6-54.784 45.568-86.528 60.416 45.056 36.864 74.24 92.672 74.24 155.648 0 110.592-92.16 201.728-203.264 200.192-109.056-1.536-197.12-90.624-197.12-200.192 0-62.976 29.184-118.784 74.24-155.648-31.744-14.848-60.928-34.816-86.528-60.416-54.784-54.784-85.504-126.976-87.552-203.776 0-4.608 3.584-8.192 8.192-8.192h55.808c4.096 0 7.68 3.584 8.192 7.68 2.048 57.856 25.6 112.128 66.56 153.6 43.008 43.008 100.352 66.56 161.28 66.56s118.272-23.552 161.28-66.56c40.96-40.96 64.512-95.744 66.56-153.6 0-4.096 3.584-7.68 8.192-7.68h55.808c4.608 0 8.192 3.584 8.192 8.192-2.048 76.8-32.768 148.992-87.552 203.776z m-212.48 88.064c-34.304 0-66.56 13.312-90.624 37.376-24.576 24.576-37.888 57.344-37.376 91.648 0.512 32.768 13.312 64.512 36.352 88.064 24.064 24.576 56.32 38.4 90.624 38.912 33.792 0.512 66.56-12.8 91.136-36.352 24.576-24.064 38.4-56.832 38.4-91.648 0-34.304-13.312-66.048-37.376-90.624-24.576-24.064-56.832-37.376-91.136-37.376zM361.472 385.536c-1.024 8.704-1.536 17.408-1.536 26.624 0 15.872 1.536 31.232 4.096 46.592 0.512 3.584-1.024 7.168-4.608 8.704-13.824 6.144-26.112 14.336-36.864 25.088-25.6 25.088-39.936 59.392-38.912 95.232 1.024 32.256 13.824 62.464 36.352 85.504 24.576 25.088 57.856 38.912 93.184 38.912 31.744-0.512 62.464-12.8 86.016-34.304 7.68-7.168 14.848-15.36 20.48-24.576 2.048-3.072 6.144-4.608 9.216-3.072 17.408 6.144 36.352 10.24 55.296 12.288 5.632 0.512 8.704 6.656 6.144 11.776C558.08 738.816 491.52 782.848 414.72 784.384c-111.104 1.536-203.264-89.088-203.264-199.68 0-62.976 28.672-118.784 74.24-155.648-31.232-15.36-60.416-35.328-86.016-60.928-54.784-54.784-86.016-126.976-87.552-203.776 0-4.608 3.584-8.192 8.192-8.192h56.32c4.096 0 7.68 3.584 8.192 7.68 2.048 57.856 25.6 112.128 66.56 153.6 29.184 29.184 65.536 49.664 104.448 59.904 3.584 0.512 6.144 4.096 5.632 8.192z"  horiz-adv-x="1024" />

    
    <glyph glyph-name="clock" unicode="&#60423;" d="M512 832c-247.296 0-448-200.704-448-448s200.704-448 448-448 448 200.704 448 448-200.704 448-448 448z m0-820.224c-205.312 0-372.224 166.4-372.224 372.224S306.688 756.2239999999999 512 756.2239999999999s372.224-166.4 372.224-372.224-166.912-372.224-372.224-372.224zM686.592 257.53599999999994l-142.848 102.912V607.744c0 4.608-3.584 8.192-8.192 8.192h-48.128c-4.608 0-8.192-3.584-8.192-8.192V332.79999999999995c0-2.56 1.024-5.12 3.072-6.656l165.376-120.832c3.584-2.56 8.704-2.048 11.264 1.536l28.672 38.912c3.584 4.096 2.56 9.216-1.024 11.776z"  horiz-adv-x="1024" />

    
    <glyph glyph-name="text" unicode="&#58915;" d="M783.872 735.744H240.128c-4.608 0-8.192-3.584-8.192-8.192v-128c0-4.608 3.584-8.192 8.192-8.192h55.808c4.608 0 8.192 3.584 8.192 8.192V664.064h167.936v-560.128h-92.16c-4.608 0-8.192-3.584-8.192-8.192v-55.808c0-4.608 3.584-8.192 8.192-8.192h264.192c4.608 0 8.192 3.584 8.192 8.192v55.808c0 4.608-3.584 8.192-8.192 8.192h-92.16V664.064h167.936v-64c0-4.608 3.584-8.192 8.192-8.192h55.808c4.608 0 8.192 3.584 8.192 8.192v128c0 4.096-3.584 7.68-8.192 7.68z"  horiz-adv-x="1024" />

    
    <glyph glyph-name="date" unicode="&#60424;" d="M512 832c-247.296 0-448-200.704-448-448s200.704-448 448-448 448 200.704 448 448-200.704 448-448 448z m0-820.224c-205.312 0-372.224 166.4-372.224 372.224S306.688 756.2239999999999 512 756.2239999999999s372.224-166.4 372.224-372.224-166.912-372.224-372.224-372.224zM686.592 257.53599999999994l-142.848 102.912V607.744c0 4.608-3.584 8.192-8.192 8.192h-48.128c-4.608 0-8.192-3.584-8.192-8.192V332.79999999999995c0-2.56 1.024-5.12 3.072-6.656l165.376-120.832c3.584-2.56 8.704-2.048 11.264 1.536l28.672 38.912c3.584 4.096 2.56 9.216-1.024 11.776z"  horiz-adv-x="1024" />

    
    <glyph glyph-name="add" unicode="&#58917;" d="M483.84 357.376H252.928V410.624h230.912V660.48h57.344v-249.856h229.888v-52.736h-229.888V107.51999999999998H483.84v249.856z"  horiz-adv-x="1024" />

    
    <glyph glyph-name="parenthesis-right" unicode="&#58918;" d="M576 383.48800000000006c0-115.2-32.256-209.92-86.528-298.496l-41.984 17.92c50.176 83.968 73.728 182.784 73.728 280.064 0 98.304-23.552 196.608-73.728 280.064l41.984 18.432c54.784-87.552 86.528-181.76 86.528-297.984z"  horiz-adv-x="1024" />

    
    <glyph glyph-name="minus" unicode="&#58919;" d="M771.072 357.376V410.624H252.928v-53.248z"  horiz-adv-x="1024" />

    
    <glyph glyph-name="divide" unicode="&#58920;" d="M441.856 101.88800000000003l193.536 564.224h-54.272L388.608 101.88800000000003z"  horiz-adv-x="1024" />

    
    <glyph glyph-name="multiply" unicode="&#58921;" d="M428.032 292.352l44.544 74.752-76.8 30.72 11.264 33.792 80.384-20.992L494.592 496.64h35.84l6.656-84.48 80.384 19.456 10.752-33.792-75.776-30.72 44.544-74.752-28.672-20.992-55.296 68.096-56.32-68.096-28.672 20.992z"  horiz-adv-x="1024" />

    
    <glyph glyph-name="parenthesis-left" unicode="&#58922;" d="M448 384.512c0 115.2 32.256 209.92 86.528 298.496l41.984-17.92c-50.176-83.968-73.728-182.784-73.728-280.064 0-98.304 23.552-196.608 73.728-280.064l-41.984-18.432C479.744 174.08000000000004 448 268.288 448 384.512z"  horiz-adv-x="1024" />

    
    <glyph glyph-name="radar" unicode="&#59026;" d="M509.165 699.9c-12.195 0-24.39-6.075-36.585-12.15L228.77 480.435c-18.27-18.27-30.465-48.78-24.39-73.125l79.245-286.515c6.12-24.345 30.465-42.66 60.975-42.66h335.25c24.345 0 48.735 18.315 60.93 42.66l79.2 286.515c6.12 24.345-6.075 54.855-24.345 73.125l-249.93 207.225c-6.075 6.12-18.27 12.195-36.54 12.195z m0-48.735c6.075 0 6.075 0 0 0l256.005-207.27c6.075-6.075 12.15-18.27 6.075-24.39l-79.2-286.47c0-6.075-12.24-12.15-12.24-12.15H344.6a13.095 13.095 0 0 0-12.15 12.15L247.04 419.55c0 6.12 0 24.39 6.12 24.39l256.005 207.27z m0 182.835c-12.195 0-24.39-6.075-36.585-12.15L88.55 517.02C64.205 498.75 58.085 468.285 64.205 443.85L222.65-19.335000000000036c6.075-24.39 36.54-42.66 60.93-42.66H746.9c24.39 0 54.9 18.27 60.975 42.66L960.2 443.895c6.075 24.39 0 54.9-24.39 73.17L545.75 821.8050000000001C539.63 834 527.435 834 509.165 834z m0-42.66h6.075l390.105-310.86c6.075-6.075 6.075-18.27 6.075-24.39L759.05-7.139999999999986c0-6.12-12.15-12.15-18.27-12.15H283.625c-6.075 0-12.15 6.03-18.27 12.15L106.865 456.09c0 6.12 0 18.315 6.075 24.39L503.09 791.34h6.075zM509.165 669.435l-225.54-414.495 554.67-140.175z"  horiz-adv-x="1024" />

    
    <glyph glyph-name="point" unicode="&#58928;" d="M199.168 526.336c0-62.976 50.688-113.664 113.664-113.664s113.664 50.688 113.664 113.664S375.808 640 312.832 640s-113.664-50.688-113.664-113.664zM682.496 355.328c0-62.976 50.688-113.664 113.664-113.664 62.976 0 113.664 50.688 113.664 113.664 0 62.976-50.688 113.664-113.664 113.664-62.464 0.512-113.664-50.688-113.664-113.664 0 0.512 0 0 0 0zM284.672 156.67200000000003c0-62.976 50.688-113.664 113.664-113.664 62.976 0 113.664 50.688 113.664 113.664 0 62.976-50.688 113.664-113.664 113.664-62.976 0-113.664-51.2-113.664-113.664z"  horiz-adv-x="1024" />

    
    <glyph glyph-name="check-circle-link" unicode="&#58929;" d="M734.208-8.70399999999995l-28.672-28.672c-11.264-11.264-24.576-17.408-40.96-17.408-14.848 0-29.696 6.144-40.96 17.408-22.528 22.528-22.528 59.392 0 81.92l68.096 68.096c11.264 11.264 24.576 17.408 40.96 17.408 14.848 0 29.696-6.144 40.96-17.408 8.704-8.704 23.552-8.704 33.28 0 8.704 8.704 8.704 23.552 0 33.28-40.448 40.96-106.496 40.96-147.456 0.512l-0.512-0.512-68.096-68.096c-40.96-40.448-40.96-106.496-0.512-147.456l0.512-0.512c40.96-40.96 106.496-40.96 147.456 0l28.672 28.672c8.704 8.704 8.704 23.552 0 33.28-9.216 8.192-24.064 8.192-32.768-0.512zM779.264 266.24s0-0.512 0 0l-29.184-29.184c-8.704-8.704-8.704-23.552 0-33.28 8.704-8.704 23.552-8.704 33.28 0l28.672 28.672c11.264 11.264 24.576 17.408 40.96 17.408 14.848 0 29.696-6.144 40.96-17.408 22.528-22.528 22.528-59.392 0-81.92L826.368 81.91999999999996c-11.264-11.264-24.576-17.408-40.96-17.408-14.848 0-29.696 6.144-40.96 17.408-8.704 8.704-23.552 8.704-33.28 0-8.704-8.704-8.704-22.528-1.024-31.232l1.024-1.024c40.96-40.96 106.496-40.96 147.456 0L926.72 117.75999999999999c40.96 40.96 40.96 108.032 0 147.456-40.448 41.472-106.496 41.472-147.456 1.024zM563.2 97.79200000000003l196.608 196.608c24.576 24.576 56.832 37.888 91.648 37.888h0.512c34.304 0 67.072-13.824 91.648-37.888 2.048-2.048 4.096-4.096 6.144-6.656 6.656 31.232 10.24 63.488 10.24 96.256 0 247.296-200.704 448-448 448S64 631.296 64 384s200.704-448 448-448c11.264 0 22.016 0.512 32.768 1.024-12.8 20.48-19.968 44.032-19.456 69.12 0 34.816 13.312 67.072 37.888 91.648z m-68.096 140.288a31.5904 31.5904 0 0 0-51.712 0L318.464 411.136c-3.584 5.12 0 12.8 6.656 12.8h47.104c10.24 0 19.968-5.12 26.112-13.312l71.168-98.816 157.184 218.112c6.144 8.192 15.36 13.312 26.112 13.312h47.104c6.656 0 10.24-7.168 6.656-12.8l-211.456-292.352z"  horiz-adv-x="1024" />

    


  </font>
</defs>
</svg>
